<?xml version="1.0" standalone="no"?><!DOCTYPE svg PUBLIC "-//W3C//DTD SVG 1.1//EN" "http://www.w3.org/Graphics/SVG/1.1/DTD/svg11.dtd"><svg t="1648455102805" class="icon" viewBox="0 0 1024 1024" version="1.1" xmlns="http://www.w3.org/2000/svg" p-id="4966" xmlns:xlink="http://www.w3.org/1999/xlink" width="200" height="200"><defs><style type="text/css"></style></defs><path d="M995.2 960l-32-224c0-17.6-14.4-32-32-32-3.2 0-11.2 0-14.4 3.2-3.2 0-6.4 3.2-11.2 6.4L848 771.2 628.8 550.4c-11.2-11.2-28.8-11.2-38.4 0L552 588.8c-11.2 11.2-11.2 28.8 0 38.4l224 224-57.6 57.6c-3.2 3.2-6.4 6.4-6.4 11.2-3.2 3.2-3.2 11.2-3.2 14.4 0 17.6 14.4 32 32 32L960 995.2h3.2c11.2 0 20.8-6.4 25.6-14.4 3.2-6.4 8-9.6 6.4-20.8 1.6 3.2 1.6 3.2 0 0zM433.6 550.4c-11.2-11.2-28.8-11.2-38.4 0L174.4 771.2l-57.6-57.6c-3.2-3.2-6.4-6.4-11.2-6.4-3.2 0-6.4-3.2-14.4-3.2-17.6 0-32 14.4-32 32l-32 224c0 6.4 3.2 14.4 6.4 17.6 8 8 16 14.4 27.2 14.4H64l224-28.8c17.6 0 32-14.4 32-32 0-3.2 0-11.2-3.2-14.4 0-3.2-3.2-6.4-6.4-11.2L252.8 848l220.8-220.8c11.2-11.2 11.2-28.8 0-38.4 0 1.6-40-38.4-40-38.4zM995.2 60.8c0-6.4-3.2-14.4-6.4-17.6-6.4-6.4-14.4-14.4-25.6-14.4H960L739.2 56c-17.6 0-32 14.4-32 32 0 3.2 0 11.2 3.2 14.4 0 3.2 3.2 6.4 6.4 11.2l57.6 57.6-219.2 219.2c-11.2 11.2-11.2 28.8 0 38.4l38.4 38.4c11.2 11.2 28.8 11.2 38.4 0l220.8-220.8 57.6 57.6c3.2 3.2 6.4 6.4 14.4 6.4 3.2 0 6.4 3.2 11.2 3.2 17.6 0 32-14.4 32-32l27.2-220.8c0 3.2 0 3.2 0 0zM248 174.4l57.6-57.6c3.2-3.2 6.4-6.4 6.4-11.2 3.2-3.2 3.2-11.2 3.2-14.4 0-17.6-14.4-32-32-32L64 28.8h-3.2c-11.2 0-17.6 6.4-25.6 14.4-3.2 6.4-6.4 9.6-6.4 17.6l32 224c0 17.6 14.4 32 32 32 3.2 0 6.4 0 14.4-3.2 3.2 0 6.4-3.2 11.2-6.4l57.6-57.6 220.8 220.8c11.2 11.2 28.8 11.2 38.4 0l38.4-38.4c11.2-11.2 11.2-28.8 0-38.4 0-3.2-225.6-219.2-225.6-219.2z" fill="#333333" p-id="4967"></path></svg>