<?xml version="1.0" standalone="no"?><!DOCTYPE svg PUBLIC "-//W3C//DTD SVG 1.1//EN" "http://www.w3.org/Graphics/SVG/1.1/DTD/svg11.dtd"><svg t="1648712599882" class="icon" viewBox="0 0 1024 1024" version="1.1" xmlns="http://www.w3.org/2000/svg" p-id="3051" xmlns:xlink="http://www.w3.org/1999/xlink" width="200" height="200"><defs><style type="text/css"></style></defs><path d="M398.4 172.8c-3.2 0-11.2 0-14.4 3.2-3.2 0-6.4 3.2-11.2 6.4L315.2 240 96 20.8c-11.2-11.2-28.8-11.2-38.4 0l-40 38.4C6.4 70.4 6.4 88 17.6 97.6l224 224-57.6 57.6c-3.2 3.2-6.4 6.4-6.4 11.2-3.2 3.2-3.2 11.2-3.2 14.4 0 17.6 14.4 32 32 32L425.6 464h3.2c11.2 0 20.8-6.4 25.6-14.4 3.2-6.4 6.4-11.2 6.4-20.8l-32-224c1.6-17.6-12.8-32-30.4-32z m193.6 288h3.2l224-28.8c17.6 0 32-14.4 32-32 0-3.2 0-11.2-3.2-14.4 0-3.2-3.2-6.4-6.4-11.2l-57.6-56 220.8-220.8c11.2-11.2 11.2-28.8 0-38.4l-38.4-38.4c-11.2-11.2-28.8-11.2-38.4 0L705.6 240 648 182.4c-3.2-3.2-6.4-6.4-11.2-6.4-3.2 0-6.4-3.2-14.4-3.2-17.6 0-32 14.4-32 32l-32 224c0 6.4 3.2 14.4 6.4 17.6 9.6 8 17.6 14.4 27.2 14.4zM428.8 563.2h-3.2L206.4 592c-17.6 0-32 14.4-32 32 0 3.2 0 11.2 3.2 14.4 0 3.2 3.2 6.4 6.4 11.2l57.6 57.6L20.8 926.4c-11.2 11.2-11.2 28.8 0 38.4l38.4 38.4c11.2 11.2 28.8 11.2 38.4 0L320 784l57.6 57.6c3.2 3.2 6.4 6.4 14.4 6.4 3.2 0 6.4 3.2 11.2 3.2 17.6 0 32-14.4 32-32l28.8-224c0-6.4-3.2-14.4-6.4-17.6-11.2-8-17.6-14.4-28.8-14.4z m577.6 361.6l-224-216 57.6-57.6c3.2-3.2 6.4-6.4 6.4-11.2 3.2-3.2 3.2-11.2 3.2-14.4 0-17.6-14.4-32-32-32l-220.8-32h-3.2c-11.2 0-17.6 6.4-25.6 14.4-3.2 6.4-6.4 11.2-6.4 17.6l32 224c0 17.6 14.4 32 32 32 3.2 0 6.4 0 14.4-3.2 3.2 0 6.4-3.2 11.2-6.4l57.6-57.6L928 1003.2c11.2 11.2 28.8 11.2 38.4 0l38.4-38.4c11.2-11.2 11.2-28.8 1.6-40z" fill="#333333" p-id="3052"></path></svg>